<svg width="151" height="34" viewBox="0 0 151 34" fill="none" xmlns="http://www.w3.org/2000/svg">
<path d="M2.369 2.64H27.301L12.236 26.974H26.312V33H0.23L15.272 8.666H2.369V2.64ZM42.2226 13.565C43.5413 13.565 44.8293 13.8333 46.0866 14.37C47.3439 14.9067 48.3789 15.7577 49.1916 16.923C50.0043 18.073 50.4106 19.591 50.4106 21.477V33H43.4186V22.627C43.4186 21.2777 43.1119 20.2657 42.4986 19.591C41.9006 18.901 41.0803 18.556 40.0376 18.556C39.3476 18.556 38.6883 18.74 38.0596 19.108C37.4309 19.4607 36.9173 19.9667 36.5186 20.626C36.1353 21.27 35.9436 22.0137 35.9436 22.857V33H28.9286V1.352H35.9436V16.9C36.1123 16.394 36.4879 15.888 37.0706 15.382C37.6686 14.8607 38.4123 14.4313 39.3016 14.094C40.2063 13.7413 41.1799 13.565 42.2226 13.565ZM59.3213 22.857C59.3213 24.3597 59.605 25.5633 60.1723 26.468C60.7396 27.3573 61.6903 27.802 63.0243 27.802C64.389 27.802 65.3473 27.3573 65.8993 26.468C66.4666 25.5633 66.7503 24.3597 66.7503 22.857V14.117H73.6503V23.593C73.6503 25.617 73.2286 27.3803 72.3853 28.883C71.5573 30.3703 70.3536 31.5203 68.7743 32.333C67.195 33.1457 65.2783 33.552 63.0243 33.552C60.7856 33.552 58.8766 33.1457 57.2973 32.333C55.718 31.5203 54.5143 30.3703 53.6863 28.883C52.8583 27.3803 52.4443 25.617 52.4443 23.593V14.117H59.3213V22.857ZM88.9385 14.117H96.8505L87.9495 23.133L97.7705 33H89.6745L82.3835 25.41V33H75.3915V1.352H82.3835V20.695L88.9385 14.117ZM106.518 33.552C104.448 33.552 102.608 33.1303 100.998 32.287C99.4034 31.4283 98.146 30.2553 97.226 28.768C96.3214 27.2653 95.869 25.548 95.869 23.616C95.869 21.684 96.3214 19.9667 97.226 18.464C98.146 16.946 99.4034 15.75 100.998 14.876C102.608 14.002 104.448 13.565 106.518 13.565C108.588 13.565 110.413 14.002 111.992 14.876C113.571 15.75 114.806 16.946 115.695 18.464C116.584 19.9667 117.029 21.684 117.029 23.616C117.029 25.548 116.584 27.2653 115.695 28.768C114.806 30.2553 113.571 31.4283 111.992 32.287C110.413 33.1303 108.588 33.552 106.518 33.552ZM106.518 27.802C107.315 27.802 108.005 27.6257 108.588 27.273C109.171 26.9203 109.623 26.422 109.945 25.778C110.267 25.134 110.428 24.4057 110.428 23.593C110.428 22.765 110.267 22.029 109.945 21.385C109.623 20.741 109.171 20.235 108.588 19.867C108.005 19.499 107.315 19.315 106.518 19.315C105.721 19.315 105.023 19.499 104.425 19.867C103.842 20.235 103.382 20.741 103.045 21.385C102.723 22.029 102.562 22.765 102.562 23.593C102.562 24.4057 102.723 25.134 103.045 25.778C103.382 26.422 103.842 26.9203 104.425 27.273C105.023 27.6257 105.721 27.802 106.518 27.802ZM117.379 14.117H120.507V9.126C120.507 7.286 120.898 5.75266 121.68 4.526C122.462 3.29933 123.474 2.37166 124.716 1.743C125.958 1.11433 127.246 0.799998 128.58 0.799998C130.236 0.799998 131.493 1.02233 132.352 1.467C133.226 1.91167 133.778 2.24133 134.008 2.456L131.34 7.585C131.263 7.46233 131.071 7.286 130.765 7.056C130.458 6.826 130.052 6.711 129.546 6.711C129.224 6.711 128.902 6.79533 128.58 6.964C128.258 7.13267 127.989 7.43167 127.775 7.861C127.575 8.29033 127.476 8.919 127.476 9.747V14.117H132.145V19.867H127.476V33H120.507V19.867H117.379V14.117ZM133.387 14.117H136.515V9.126C136.515 7.286 136.906 5.75266 137.688 4.526C138.47 3.29933 139.482 2.37166 140.724 1.743C141.966 1.11433 143.254 0.799998 144.588 0.799998C146.244 0.799998 147.501 1.02233 148.36 1.467C149.234 1.91167 149.786 2.24133 150.016 2.456L147.348 7.585C147.271 7.46233 147.079 7.286 146.773 7.056C146.466 6.826 146.06 6.711 145.554 6.711C145.232 6.711 144.91 6.79533 144.588 6.964C144.266 7.13267 143.997 7.43167 143.783 7.861C143.583 8.29033 143.484 8.919 143.484 9.747V14.117H148.153V19.867H143.484V33H136.515V19.867H133.387V14.117Z" fill="white"/>
</svg>
